# Blender v2.92.0 OBJ File: 'SubmitButton1.blend'
# www.blender.org
o SubmitButtonHighlight
v -0.753416 -1.086375 2.521889
v -1.008756 -1.086375 1.883539
v -0.753416 -1.086375 -2.521889
v -1.008756 -1.086375 -1.883539
v 0.753416 -1.086375 2.521889
v 1.008756 -1.086375 1.883539
v 1.008756 -1.086375 -1.883539
v 0.753416 -1.086375 -2.521889
vt 0.000000 0.000000
vt 0.000000 0.000000
vt 0.000000 0.000000
vt 0.000000 0.000000
vt 0.000000 0.000000
vt 0.000000 0.000000
vt 0.000000 0.000000
vt 0.000000 0.000000
vn 0.0000 -1.0000 0.0000
g SubmitButtonHighlight
s off
f 2/1/1 4/2/1 3/3/1 8/4/1 7/5/1 6/6/1 5/7/1 1/8/1
